#!OML:ASF I:\Actors\actors\Patient Classification 2\Patient 1\Session 1\actor1.ASF
:FULLY-SPECIFIED
:DEGREES
657
root -0.585866 18.8188 6.25002 8.82296 8.8978 6.76048
lowerback 16.3362 -4.79745 18.8712
upperback 2.03204 -2.3813 5.8956
thorax -7.5022 -1.55704 -3.49181
lowerneck -13.4077 1.55869 -4.71916
upperneck 6.15171 5.33786 -23.3911
head 4.78594 1.18002 -6.1931
rclavicle -2.54444e-014 8.90555e-014
rhumerus -50.631 3.2476 -92.6211
rradius 67.5501
rwrist 29.1439
rhand -4.98395 -57.7806
rfingers 7.12502
rthumb 20.8088 -86.6848
lclavicle -2.54444e-014 8.90555e-014
lhumerus -38.3013 -21.3648 110.385
lradius 43.6856
lwrist -15.7984
lhand 3.79442 -17.7163
lfingers 7.12502
lthumb 29.2194 10.0095
rfemur 0 0 0
rtibia 0
rfoot 0 0
rtoes 0
lfemur -13.1391 -1.93537 -21.0209
ltibia 20.7988
lfoot -12.7683 -0.236361
ltoes -55.9568
658
root -0.593313 18.8188 6.2642 8.80003 8.98771 6.88452
lowerback 16.0645 -4.81533 18.9868
upperback 1.91522 -2.44157 5.81505
thorax -7.50508 -1.59681 -3.63475
lowerneck -13.3528 1.51186 -4.15534
upperneck 6.52657 5.39213 -24.6409
head 4.96972 1.1185 -6.71648
rclavicle -2.70347e-014 -3.18055e-015
rhumerus -50.6093 3.54115 -92.7906
rradius 67.1185
rwrist 28.9409
rhand -4.75334 -57.8607
rfingers 7.12502
rthumb 21.0304 -86.7404
lclavicle -2.70347e-014 -3.18055e-015
lhumerus -38.3491 -21.2311 110.277
lradius 43.4349
lwrist -15.8609
lhand 3.89788 -17.6604
lfingers 7.12502
lthumb 29.3182 10.0482
rfemur 0 0 0
rtibia 0
rfoot 0 0
rtoes 0
lfemur -13.0511 -1.70533 -21.1198
ltibia 20.7666
lfoot -12.6266 -0.540829
ltoes -56.0897
659
root -0.600413 18.8182 6.27893 8.77377 9.062 7.02698
lowerback 15.7903 -4.82871 19.109
upperback 1.81411 -2.50086 5.70656
thorax -7.48997 -1.63503 -3.81362
lowerneck -13.4842 1.49287 -4.00433
upperneck 7.1349 5.59049 -25.3741
head 5.24571 1.10607 -6.99522
rclavicle 1.43125e-014 -3.18055e-014
rhumerus -50.585 3.90152 -93.023
rradius 66.7079
rwrist 28.4768
rhand -4.69238 -58.1339
rfingers 7.12502
rthumb 21.089 -87.0071
lclavicle 1.43125e-014 -3.18055e-014
lhumerus -38.3713 -21.028 110.098
lradius 43.2514
lwrist -16.0088
lhand 4.19157 -17.633
lfingers 7.12502
lthumb 29.5986 10.0262
rfemur 0 0 0
rtibia 0
rfoot 0 0
rtoes 0
lfemur -12.9548 -1.47963 -21.2514
ltibia 20.7414
lfoot -12.5202 -0.764524
ltoes -56.2413
660
root -0.607501 18.8176 6.29246 8.72066 9.16285 7.15729
lowerback 15.5723 -4.84469 19.248
upperback 1.69007 -2.54399 5.58597
thorax -7.5306 -1.67143 -4.01439
lowerneck -13.6094 1.47542 -4.25038
upperneck 7.89485 5.84331 -25.5624
head 5.54172 1.12113 -7.01919
rclavicle 1.74931e-014 6.36111e-015
rhumerus -50.5633 4.29363 -93.2736
rradius 66.2056
rwrist 27.8416
rhand -4.72199 -58.4118
rfingers 7.12502
rthumb 21.0605 -87.2881
lclavicle 1.74931e-014 6.36111e-015
lhumerus -38.4461 -20.8209 109.904
lradius 43.1083
lwrist -16.1799
lhand 4.61862 -17.6018
lfingers 7.12502
lthumb 30.0061 9.98432
rfemur 0 0 0
rtibia 0
rfoot 0 0
rtoes 0
lfemur -12.8289 -1.26429 -21.3738
ltibia 20.7046
lfoot -12.4478 -0.958354
ltoes -56.3456
661
root -0.614658 18.8161 6.30734 8.64441 9.25015 7.27321
lowerback 15.3418 -4.84719 19.3946
upperback 1.57747 -2.57419 5.46257
thorax -7.54905 -1.70023 -4.22702
lowerneck -13.7521 1.44757 -4.6055
upperneck 8.71215 6.11092 -25.6414
head 5.85537 1.13621 -6.98851
rclavicle -3.49861e-014 -2.22639e-014
rhumerus -50.5437 4.7504 -93.519
rradius 65.6855
rwrist 27.1379
rhand -4.86009 -58.51
rfingers 7.12502
rthumb 20.9278 -87.4011
lclavicle -3.49861e-014 -2.22639e-014
lhumerus -38.546 -20.7324 109.732
lradius 42.9722
lwrist -16.2297
lhand 5.03081 -17.4506
lfingers 7.12502
lthumb 30.3994 10.0636
rfemur 0 0 0
rtibia 0
rfoot 0 0
rtoes 0
lfemur -12.6609 -0.990608 -21.4765
ltibia 20.6532
lfoot -12.3383 -1.22878
ltoes -56.3045
662
root -0.622361 18.8149 6.32409 8.59919 9.36412 7.38447
lowerback 15.0111 -4.83692 19.5793
upperback 1.50008 -2.61608 5.30452
thorax -7.47706 -1.72841 -4.50298
lowerneck -13.9645 1.42152 -4.89225
upperneck 9.5723 6.39009 -25.6901
head 6.19937 1.14926 -6.96117
rclavicle 4.29375e-014 -9.54166e-014
rhumerus -50.4907 5.15227 -93.8026
rradius 65.2029
rwrist 26.5436
rhand -4.89196 -58.6809
rfingers 7.12502
rthumb 20.8972 -87.5753
lclavicle 4.29375e-014 -9.54166e-014
lhumerus -38.595 -20.6783 109.5
lradius 42.8158
lwrist -16.2716
lhand 5.44906 -17.3101
lfingers 7.12502
lthumb 30.7982 10.1297
rfemur 0 0 0
rtibia 0
rfoot 0 0
rtoes 0
lfemur -12.5166 -0.762342 -21.5634
ltibia 20.5881
lfoot -12.1707 -1.55078
ltoes -56.1909
663
root -0.631558 18.8145 6.33989 8.58466 9.53803 7.52316
lowerback 14.6461 -4.82812 19.7477
upperback 1.44386 -2.67888 5.10552
thorax -7.36781 -1.76303 -4.81394
lowerneck -14.1542 1.41702 -4.9811
upperneck 10.3687 6.6556 -25.807
head 6.52791 1.16619 -6.99218
rclavicle -4.77083e-015 2.22639e-014
rhumerus -50.3877 5.4203 -94.1285
rradius 64.6921
rwrist 26.2542
rhand -4.64731 -59.026
rfingers 7.12502
rthumb 21.1322 -87.8943
lclavicle -4.77083e-015 2.22639e-014
lhumerus -38.5774 -20.5596 109.179
lradius 42.6158
lwrist -16.4377
lhand 5.81062 -17.3218
lfingers 7.12502
lthumb 31.1428 10.0524
rfemur 0 0 0
rtibia 0
rfoot 0 0
rtoes 0
lfemur -12.4083 -0.629497 -21.6678
ltibia 20.5166
lfoot -12.0131 -1.8542
ltoes -56.1954
664
root -0.642447 18.8145 6.35275 8.58203 9.73212 7.67683
lowerback 14.3484 -4.83711 19.8455
upperback 1.36816 -2.75424 4.93302
thorax -7.3178 -1.80636 -5.05084
lowerneck -14.2277 1.44083 -5.02996
upperneck 10.9877 6.90966 -26.0234
head 6.78562 1.19898 -7.06099
rclavicle 4.29375e-014 -2.22639e-014
rhumerus -50.4654 5.55842 -94.489
rradius 64.2838
rwrist 26.3172
rhand -4.57415 -59.1335
rfingers 7.12502
rthumb 21.2025 -87.994
lclavicle 4.29375e-014 -2.22639e-014
lhumerus -38.537 -20.4334 108.889
lradius 42.3869
lwrist -16.5193
lhand 6.14011 -17.283
lfingers 7.12502
lthumb 31.4568 10.0304
rfemur 0 0 0
rtibia 0
rfoot 0 0
rtoes 0
lfemur -12.3216 -0.49398 -21.7787
ltibia 20.4518
lfoot -11.8817 -2.1479
ltoes -56.2124
665
root -0.654865 18.8149 6.36381 8.57052 9.90127 7.78062
lowerback 14.1027 -4.84299 19.9401
upperback 1.2843 -2.80847 4.80098
thorax -7.29963 -1.8416 -5.24308
lowerneck -14.2418 1.46817 -5.15024
upperneck 11.5288 7.15656 -26.2288
head 7.00608 1.23748 -7.11231
rclavicle 4.77083e-015 -9.54166e-015
rhumerus -50.4285 5.88643 -94.8015
rradius 63.7751
rwrist 26.2048
rhand -4.60373 -59.1137
rfingers 7.12502
rthumb 21.1741 -87.9774
lclavicle 4.77083e-015 -9.54166e-015
lhumerus -38.5057 -20.2676 108.623
lradius 42.2014
lwrist -16.5057
lhand 6.59525 -17.1633
lfingers 7.12502
lthumb 31.8903 10.0646
rfemur 0 0 0
rtibia 0
rfoot 0 0
rtoes 0
lfemur -12.2461 -0.293012 -21.8322
ltibia 20.3961
lfoot -11.7084 -2.44268
ltoes -56.1651
666
root -0.668674 18.8158 6.37531 8.55263 10.0498 7.84659
lowerback 13.843 -4.80634 20.0736
upperback 1.21905 -2.80865 4.66368
thorax -7.24137 -1.84858 -5.47666
lowerneck -14.2782 1.48446 -5.31813
upperneck 12.1481 7.41032 -26.3365
head 7.25208 1.27299 -7.12385
rclavicle -9.54166e-015 6.36111e-014
rhumerus -50.3143 6.13167 -95.0875
rradius 63.2232
rwrist 26.0042
rhand -4.50634 -59.1738
rfingers 7.12502
rthumb 21.2677 -88.0269
lclavicle -9.54166e-015 6.36111e-014
lhumerus -38.4767 -20.1359 108.356
lradius 42.0363
lwrist -16.5597
lhand 7.0464 -17.1361
lfingers 7.12502
lthumb 32.3199 10.0051
rfemur 0 0 0
rtibia 0
rfoot 0 0
rtoes 0
lfemur -12.183 -0.0906335 -21.8435
ltibia 20.3558
lfoot -11.548 -2.69583
ltoes -56.2335
667
root -0.682534 18.8159 6.38658 8.4985 10.2251 7.94423
lowerback 13.5637 -4.77073 20.1516
upperback 1.2179 -2.83324 4.53356
thorax -7.10158 -1.85521 -5.67181
lowerneck -14.3506 1.5042 -5.44967
upperneck 12.7729 7.67144 -26.4423
head 7.51064 1.30982 -7.14182
rclavicle -3.18055e-014 5.08889e-014
rhumerus -50.0559 6.33758 -95.3404
rradius 62.6001
rwrist 25.8411
rhand -4.38729 -59.2952
rfingers 7.12502
rthumb 21.382 -88.1355
lclavicle -3.18055e-014 5.08889e-014
lhumerus -38.3498 -20.0925 108.093
lradius 41.8557
lwrist -16.581
lhand 7.55325 -17.1256
lfingers 7.12502
lthumb 32.8021 9.91617
rfemur 0 0 0
rtibia 0
rfoot 0 0
rtoes 0
lfemur -12.0887 0.0423905 -21.8863
ltibia 20.3468
lfoot -11.4536 -2.91253
ltoes -56.2925
668
root -0.694978 18.8153 6.39875 8.42482 10.4028 8.07824
lowerback 13.2107 -4.75811 20.1257
upperback 1.29585 -2.93307 4.42141
thorax -6.84304 -1.88027 -5.78315
lowerneck -14.4193 1.53153 -5.51212
upperneck 13.28 7.91249 -26.6302
head 7.73634 1.34667 -7.20002
rclavicle 3.81667e-014 -4.77083e-014
rhumerus -49.5935 6.89678 -95.5681
rradius 61.8846
rwrist 25.4421
rhand -4.17051 -59.6243
rfingers 7.12502
rthumb 21.5902 -88.4408
lclavicle 3.81667e-014 -4.77083e-014
lhumerus -38.0813 -19.9425 107.748
lradius 41.6781
lwrist -16.6234
lhand 8.15861 -17.0682
lfingers 7.12502
lthumb 33.3778 9.85154
rfemur 0 0 0
rtibia 0
rfoot 0 0
rtoes 0
lfemur -11.9699 0.219432 -21.9743
ltibia 20.3649
lfoot -11.3284 -3.22126
ltoes -56.1447
669
root -0.70697 18.8163 6.40972 8.42902 10.6033 8.17548
lowerback 12.8627 -4.76225 20.1728
upperback 1.29575 -3.03205 4.28637
thorax -6.6818 -1.91953 -5.95442
lowerneck -14.4181 1.55729 -5.51339
upperneck 13.7634 8.13259 -26.8718
head 7.94515 1.37959 -7.29116
rclavicle 7.95139e-016 -6.36111e-014
rhumerus -49.2251 7.64305 -95.8299
rradius 61.1879
rwrist 24.8919
rhand -3.89907 -59.956
rfingers 7.12502
rthumb 21.8509 -88.7423
lclavicle 7.95139e-016 -6.36111e-014
lhumerus -37.8663 -19.6647 107.345
lradius 41.4596
lwrist -16.8331
lhand 8.64462 -17.0576
lfingers 7.12502
lthumb 33.8397 9.76164
rfemur 0 0 0
rtibia 0
rfoot 0 0
rtoes 0
lfemur -11.9519 0.40967 -22.0264
ltibia 20.3872
lfoot -11.1998 -3.54417
ltoes -56.1088
670
root -0.720034 18.8185 6.41771 8.4594 10.8462 8.23783
lowerback 12.6504 -4.76946 20.3292
upperback 1.189 -3.07104 4.11158
thorax -6.71158 -1.95516 -6.22808
lowerneck -14.4017 1.57737 -5.50994
upperneck 14.3867 8.37077 -27.0437
head 8.19806 1.41175 -7.364
rclavicle -2.8625e-014 1.27222e-014
rhumerus -49.0453 8.07341 -96.143
rradius 60.5297
rwrist 24.6049
rhand -3.70517 -60.0571
rfingers 7.12502
rthumb 22.0371 -88.8215
lclavicle -2.8625e-014 1.27222e-014
lhumerus -37.8396 -19.4307 106.985
lradius 41.2842
lwrist -17.1154
lhand 9.13496 -17.0145
lfingers 7.12502
lthumb 34.3054 9.70089
rfemur 0 0 0
rtibia 0
rfoot 0 0
rtoes 0
lfemur -11.9838 0.539852 -22.0374
ltibia 20.3966
lfoot -11.092 -3.72768
ltoes -56.3435
671
root -0.733903 18.8195 6.42761 8.44093 11.0384 8.34156
lowerback 12.4581 -4.74441 20.3959
upperback 1.13232 -3.08503 3.92174
thorax -6.68511 -1.96972 -6.47886
lowerneck -14.4418 1.58847 -5.57682
upperneck 15.0362 8.60877 -27.0994
head 8.46352 1.44131 -7.38404
rclavicle -6.36111e-015 -2.8625e-014
rhumerus -48.8448 8.35299 -96.487
rradius 59.8412
rwrist 24.4285
rhand -3.59837 -60.1023
rfingers 7.12502
rthumb 22.1396 -88.8546
lclavicle -6.36111e-015 -2.8625e-014
lhumerus -37.8569 -19.2892 106.656
lradius 41.2335
lwrist -17.3288
lhand 9.62693 -16.9076
lfingers 7.12502
lthumb 34.7724 9.70128
rfemur 0 0 0
rtibia 0
rfoot 0 0
rtoes 0
lfemur -11.9407 0.655052 -22.0881
ltibia 20.3876
lfoot -10.9216 -3.76264
ltoes -56.5359
672
root -0.748262 18.8184 6.44064 8.33771 11.1471 8.45911
lowerback 12.2651 -4.72125 20.3817
upperback 1.18062 -3.12801 3.73564
thorax -6.54193 -1.97989 -6.68186
lowerneck -14.451 1.61248 -5.63831
upperneck 15.4683 8.80731 -27.1954
head 8.64813 1.47559 -7.41315
rclavicle -6.36111e-015 -6.36111e-014
rhumerus -48.617 8.80746 -96.873
rradius 59.2512
rwrist 24.0394
rhand -3.51913 -60.2638
rfingers 7.12502
rthumb 22.2157 -89.0071
lclavicle -6.36111e-015 -6.36111e-014
lhumerus -37.7678 -19.1833 106.3
lradius 41.179
lwrist -17.4304
lhand 9.99503 -16.8936
lfingers 7.12502
lthumb 35.1216 9.63397
rfemur 0 0 0
rtibia 0
rfoot 0 0
rtoes 0
lfemur -11.7672 0.810586 -22.1487
ltibia 20.352
lfoot -10.7198 -3.75257
ltoes -56.634
